<mxfile host="app.diagrams.net" modified="2022-03-03T23:28:57.138Z" agent="5.0 (Windows NT 10.0; Win64; x64) AppleWebKit/537.36 (KHTML, like Gecko) Chrome/98.0.4758.105 Safari/537.36" etag="N7h_-Fb2vOr-JNJGVyDd" version="16.6.4" type="github">
  <diagram id="bpbvYNMadhWOhaC7OBUR" name="Page-1">
    <mxGraphModel dx="953" dy="671" grid="1" gridSize="10" guides="1" tooltips="1" connect="1" arrows="1" fold="1" page="1" pageScale="1" pageWidth="827" pageHeight="1169" math="0" shadow="0">
      <root>
        <mxCell id="0" />
        <mxCell id="1" parent="0" />
        <mxCell id="XfRYyTciCs-Udk25P-Yr-3" style="edgeStyle=orthogonalEdgeStyle;rounded=0;orthogonalLoop=1;jettySize=auto;html=1;" edge="1" parent="1" source="XfRYyTciCs-Udk25P-Yr-1" target="XfRYyTciCs-Udk25P-Yr-2">
          <mxGeometry relative="1" as="geometry" />
        </mxCell>
        <mxCell id="XfRYyTciCs-Udk25P-Yr-1" value="Начало" style="rounded=1;whiteSpace=wrap;html=1;" vertex="1" parent="1">
          <mxGeometry x="362" y="30" width="104" height="50" as="geometry" />
        </mxCell>
        <mxCell id="XfRYyTciCs-Udk25P-Yr-5" style="edgeStyle=orthogonalEdgeStyle;rounded=0;orthogonalLoop=1;jettySize=auto;html=1;" edge="1" parent="1" source="XfRYyTciCs-Udk25P-Yr-2" target="XfRYyTciCs-Udk25P-Yr-4">
          <mxGeometry relative="1" as="geometry" />
        </mxCell>
        <mxCell id="XfRYyTciCs-Udk25P-Yr-2" value="Ввод х" style="shape=parallelogram;perimeter=parallelogramPerimeter;whiteSpace=wrap;html=1;fixedSize=1;" vertex="1" parent="1">
          <mxGeometry x="371" y="110" width="86" height="30" as="geometry" />
        </mxCell>
        <mxCell id="XfRYyTciCs-Udk25P-Yr-7" style="edgeStyle=orthogonalEdgeStyle;rounded=0;orthogonalLoop=1;jettySize=auto;html=1;entryX=1;entryY=0.5;entryDx=0;entryDy=0;" edge="1" parent="1" source="XfRYyTciCs-Udk25P-Yr-4" target="XfRYyTciCs-Udk25P-Yr-6">
          <mxGeometry relative="1" as="geometry" />
        </mxCell>
        <mxCell id="XfRYyTciCs-Udk25P-Yr-9" style="edgeStyle=orthogonalEdgeStyle;rounded=0;orthogonalLoop=1;jettySize=auto;html=1;entryX=0;entryY=0.5;entryDx=0;entryDy=0;" edge="1" parent="1" source="XfRYyTciCs-Udk25P-Yr-4" target="XfRYyTciCs-Udk25P-Yr-8">
          <mxGeometry relative="1" as="geometry" />
        </mxCell>
        <mxCell id="XfRYyTciCs-Udk25P-Yr-4" value="x=0" style="rhombus;whiteSpace=wrap;html=1;" vertex="1" parent="1">
          <mxGeometry x="386" y="150" width="56" height="40" as="geometry" />
        </mxCell>
        <mxCell id="XfRYyTciCs-Udk25P-Yr-13" style="edgeStyle=orthogonalEdgeStyle;rounded=0;orthogonalLoop=1;jettySize=auto;html=1;" edge="1" parent="1" source="XfRYyTciCs-Udk25P-Yr-6" target="XfRYyTciCs-Udk25P-Yr-10">
          <mxGeometry relative="1" as="geometry" />
        </mxCell>
        <mxCell id="XfRYyTciCs-Udk25P-Yr-6" value="While True" style="rhombus;whiteSpace=wrap;html=1;" vertex="1" parent="1">
          <mxGeometry x="170" y="50" width="80" height="50" as="geometry" />
        </mxCell>
        <mxCell id="XfRYyTciCs-Udk25P-Yr-8" value="While True" style="rhombus;whiteSpace=wrap;html=1;" vertex="1" parent="1">
          <mxGeometry x="560" y="50" width="80" height="50" as="geometry" />
        </mxCell>
        <mxCell id="XfRYyTciCs-Udk25P-Yr-15" style="edgeStyle=orthogonalEdgeStyle;rounded=0;orthogonalLoop=1;jettySize=auto;html=1;" edge="1" parent="1" source="XfRYyTciCs-Udk25P-Yr-10" target="XfRYyTciCs-Udk25P-Yr-14">
          <mxGeometry relative="1" as="geometry" />
        </mxCell>
        <mxCell id="XfRYyTciCs-Udk25P-Yr-10" value="Range = Случайное число в диапазоне (1040,1103)" style="rounded=0;whiteSpace=wrap;html=1;" vertex="1" parent="1">
          <mxGeometry x="150" y="110" width="120" height="50" as="geometry" />
        </mxCell>
        <mxCell id="XfRYyTciCs-Udk25P-Yr-11" value="Русский" style="text;strokeColor=none;fillColor=none;html=1;fontSize=24;fontStyle=1;verticalAlign=middle;align=center;" vertex="1" parent="1">
          <mxGeometry x="160" width="100" height="40" as="geometry" />
        </mxCell>
        <mxCell id="XfRYyTciCs-Udk25P-Yr-12" value="Английский" style="text;strokeColor=none;fillColor=none;html=1;fontSize=24;fontStyle=1;verticalAlign=middle;align=center;" vertex="1" parent="1">
          <mxGeometry x="550" width="100" height="40" as="geometry" />
        </mxCell>
        <mxCell id="XfRYyTciCs-Udk25P-Yr-17" style="edgeStyle=orthogonalEdgeStyle;rounded=0;orthogonalLoop=1;jettySize=auto;html=1;" edge="1" parent="1" source="XfRYyTciCs-Udk25P-Yr-14" target="XfRYyTciCs-Udk25P-Yr-16">
          <mxGeometry relative="1" as="geometry" />
        </mxCell>
        <mxCell id="XfRYyTciCs-Udk25P-Yr-14" value="&amp;nbsp;neededKey=Range" style="rounded=0;whiteSpace=wrap;html=1;" vertex="1" parent="1">
          <mxGeometry x="150" y="170" width="120" height="30" as="geometry" />
        </mxCell>
        <mxCell id="XfRYyTciCs-Udk25P-Yr-19" style="edgeStyle=orthogonalEdgeStyle;rounded=0;orthogonalLoop=1;jettySize=auto;html=1;entryX=0.5;entryY=0;entryDx=0;entryDy=0;" edge="1" parent="1" source="XfRYyTciCs-Udk25P-Yr-16" target="XfRYyTciCs-Udk25P-Yr-18">
          <mxGeometry relative="1" as="geometry" />
        </mxCell>
        <mxCell id="XfRYyTciCs-Udk25P-Yr-16" value="key=Кнопка ESC" style="rounded=0;whiteSpace=wrap;html=1;" vertex="1" parent="1">
          <mxGeometry x="150" y="210" width="120" height="30" as="geometry" />
        </mxCell>
        <mxCell id="XfRYyTciCs-Udk25P-Yr-21" style="edgeStyle=orthogonalEdgeStyle;rounded=0;orthogonalLoop=1;jettySize=auto;html=1;" edge="1" parent="1" source="XfRYyTciCs-Udk25P-Yr-18" target="XfRYyTciCs-Udk25P-Yr-20">
          <mxGeometry relative="1" as="geometry" />
        </mxCell>
        <mxCell id="XfRYyTciCs-Udk25P-Yr-18" value="Вывод neededKey" style="shape=parallelogram;perimeter=parallelogramPerimeter;whiteSpace=wrap;html=1;fixedSize=1;" vertex="1" parent="1">
          <mxGeometry x="145" y="250" width="130" height="30" as="geometry" />
        </mxCell>
        <mxCell id="XfRYyTciCs-Udk25P-Yr-23" style="edgeStyle=orthogonalEdgeStyle;rounded=0;orthogonalLoop=1;jettySize=auto;html=1;entryX=0.5;entryY=0;entryDx=0;entryDy=0;" edge="1" parent="1" source="XfRYyTciCs-Udk25P-Yr-20" target="XfRYyTciCs-Udk25P-Yr-22">
          <mxGeometry relative="1" as="geometry" />
        </mxCell>
        <mxCell id="XfRYyTciCs-Udk25P-Yr-20" value="Ввод pressedKey" style="shape=parallelogram;perimeter=parallelogramPerimeter;whiteSpace=wrap;html=1;fixedSize=1;" vertex="1" parent="1">
          <mxGeometry x="147.5" y="290" width="125" height="30" as="geometry" />
        </mxCell>
        <mxCell id="XfRYyTciCs-Udk25P-Yr-25" style="edgeStyle=orthogonalEdgeStyle;rounded=0;orthogonalLoop=1;jettySize=auto;html=1;entryX=0.5;entryY=0;entryDx=0;entryDy=0;" edge="1" parent="1" source="XfRYyTciCs-Udk25P-Yr-22" target="XfRYyTciCs-Udk25P-Yr-24">
          <mxGeometry relative="1" as="geometry" />
        </mxCell>
        <mxCell id="XfRYyTciCs-Udk25P-Yr-22" value="key=pressedKey" style="rounded=0;whiteSpace=wrap;html=1;" vertex="1" parent="1">
          <mxGeometry x="150" y="330" width="120" height="30" as="geometry" />
        </mxCell>
        <mxCell id="XfRYyTciCs-Udk25P-Yr-28" style="edgeStyle=orthogonalEdgeStyle;rounded=0;orthogonalLoop=1;jettySize=auto;html=1;entryX=0.5;entryY=0;entryDx=0;entryDy=0;" edge="1" parent="1" source="XfRYyTciCs-Udk25P-Yr-24" target="XfRYyTciCs-Udk25P-Yr-27">
          <mxGeometry relative="1" as="geometry" />
        </mxCell>
        <mxCell id="XfRYyTciCs-Udk25P-Yr-56" style="edgeStyle=orthogonalEdgeStyle;rounded=0;orthogonalLoop=1;jettySize=auto;html=1;" edge="1" parent="1" source="XfRYyTciCs-Udk25P-Yr-24" target="XfRYyTciCs-Udk25P-Yr-55">
          <mxGeometry relative="1" as="geometry">
            <Array as="points">
              <mxPoint x="360" y="400" />
              <mxPoint x="360" y="900" />
              <mxPoint x="213" y="900" />
            </Array>
          </mxGeometry>
        </mxCell>
        <mxCell id="XfRYyTciCs-Udk25P-Yr-24" value="key = Кнопка ESC" style="rhombus;whiteSpace=wrap;html=1;" vertex="1" parent="1">
          <mxGeometry x="145" y="370" width="130" height="60" as="geometry" />
        </mxCell>
        <mxCell id="XfRYyTciCs-Udk25P-Yr-30" style="edgeStyle=orthogonalEdgeStyle;rounded=0;orthogonalLoop=1;jettySize=auto;html=1;" edge="1" parent="1" source="XfRYyTciCs-Udk25P-Yr-27" target="XfRYyTciCs-Udk25P-Yr-29">
          <mxGeometry relative="1" as="geometry" />
        </mxCell>
        <mxCell id="XfRYyTciCs-Udk25P-Yr-35" style="edgeStyle=orthogonalEdgeStyle;rounded=0;orthogonalLoop=1;jettySize=auto;html=1;" edge="1" parent="1" source="XfRYyTciCs-Udk25P-Yr-27" target="XfRYyTciCs-Udk25P-Yr-34">
          <mxGeometry relative="1" as="geometry">
            <Array as="points">
              <mxPoint x="310" y="480" />
              <mxPoint x="310" y="650" />
              <mxPoint x="210" y="650" />
            </Array>
          </mxGeometry>
        </mxCell>
        <mxCell id="XfRYyTciCs-Udk25P-Yr-27" value="neededKey!=pressedKey" style="rhombus;whiteSpace=wrap;html=1;" vertex="1" parent="1">
          <mxGeometry x="132.5" y="440" width="155" height="80" as="geometry" />
        </mxCell>
        <mxCell id="XfRYyTciCs-Udk25P-Yr-32" style="edgeStyle=orthogonalEdgeStyle;rounded=0;orthogonalLoop=1;jettySize=auto;html=1;" edge="1" parent="1" source="XfRYyTciCs-Udk25P-Yr-29" target="XfRYyTciCs-Udk25P-Yr-31">
          <mxGeometry relative="1" as="geometry" />
        </mxCell>
        <mxCell id="XfRYyTciCs-Udk25P-Yr-29" value="d=d+1" style="rounded=0;whiteSpace=wrap;html=1;" vertex="1" parent="1">
          <mxGeometry x="180" y="530" width="60" height="40" as="geometry" />
        </mxCell>
        <mxCell id="XfRYyTciCs-Udk25P-Yr-94" style="edgeStyle=orthogonalEdgeStyle;rounded=0;orthogonalLoop=1;jettySize=auto;html=1;entryX=0;entryY=1;entryDx=0;entryDy=0;" edge="1" parent="1" source="XfRYyTciCs-Udk25P-Yr-31" target="XfRYyTciCs-Udk25P-Yr-6">
          <mxGeometry relative="1" as="geometry">
            <Array as="points">
              <mxPoint x="108" y="608" />
              <mxPoint x="108" y="88" />
            </Array>
          </mxGeometry>
        </mxCell>
        <mxCell id="XfRYyTciCs-Udk25P-Yr-31" value="Вывод &quot;Правильно + d&quot;" style="shape=parallelogram;perimeter=parallelogramPerimeter;whiteSpace=wrap;html=1;fixedSize=1;" vertex="1" parent="1">
          <mxGeometry x="127.5" y="585" width="165" height="45" as="geometry" />
        </mxCell>
        <mxCell id="XfRYyTciCs-Udk25P-Yr-37" style="edgeStyle=orthogonalEdgeStyle;rounded=0;orthogonalLoop=1;jettySize=auto;html=1;entryX=0.5;entryY=0;entryDx=0;entryDy=0;" edge="1" parent="1" source="XfRYyTciCs-Udk25P-Yr-34" target="XfRYyTciCs-Udk25P-Yr-36">
          <mxGeometry relative="1" as="geometry" />
        </mxCell>
        <mxCell id="XfRYyTciCs-Udk25P-Yr-34" value="Вывод &quot;Ошибка&quot;" style="shape=parallelogram;perimeter=parallelogramPerimeter;whiteSpace=wrap;html=1;fixedSize=1;" vertex="1" parent="1">
          <mxGeometry x="150" y="670" width="120" height="30" as="geometry" />
        </mxCell>
        <mxCell id="XfRYyTciCs-Udk25P-Yr-39" style="edgeStyle=orthogonalEdgeStyle;rounded=0;orthogonalLoop=1;jettySize=auto;html=1;" edge="1" parent="1" source="XfRYyTciCs-Udk25P-Yr-36" target="XfRYyTciCs-Udk25P-Yr-38">
          <mxGeometry relative="1" as="geometry" />
        </mxCell>
        <mxCell id="XfRYyTciCs-Udk25P-Yr-36" value="Проигрывание звука" style="rounded=0;whiteSpace=wrap;html=1;" vertex="1" parent="1">
          <mxGeometry x="150" y="710" width="120" height="30" as="geometry" />
        </mxCell>
        <mxCell id="XfRYyTciCs-Udk25P-Yr-42" style="edgeStyle=orthogonalEdgeStyle;rounded=0;orthogonalLoop=1;jettySize=auto;html=1;entryX=0.5;entryY=0;entryDx=0;entryDy=0;" edge="1" parent="1" source="XfRYyTciCs-Udk25P-Yr-38" target="XfRYyTciCs-Udk25P-Yr-41">
          <mxGeometry relative="1" as="geometry" />
        </mxCell>
        <mxCell id="XfRYyTciCs-Udk25P-Yr-95" style="edgeStyle=orthogonalEdgeStyle;rounded=0;orthogonalLoop=1;jettySize=auto;html=1;entryX=0;entryY=0.5;entryDx=0;entryDy=0;" edge="1" parent="1" source="XfRYyTciCs-Udk25P-Yr-38" target="XfRYyTciCs-Udk25P-Yr-40">
          <mxGeometry relative="1" as="geometry" />
        </mxCell>
        <mxCell id="XfRYyTciCs-Udk25P-Yr-38" value="d&amp;gt;a" style="rhombus;whiteSpace=wrap;html=1;" vertex="1" parent="1">
          <mxGeometry x="180" y="750" width="60" height="50" as="geometry" />
        </mxCell>
        <mxCell id="XfRYyTciCs-Udk25P-Yr-96" style="edgeStyle=orthogonalEdgeStyle;rounded=0;orthogonalLoop=1;jettySize=auto;html=1;entryX=1;entryY=0.5;entryDx=0;entryDy=0;" edge="1" parent="1" source="XfRYyTciCs-Udk25P-Yr-40" target="XfRYyTciCs-Udk25P-Yr-41">
          <mxGeometry relative="1" as="geometry">
            <Array as="points">
              <mxPoint x="295" y="850" />
            </Array>
          </mxGeometry>
        </mxCell>
        <mxCell id="XfRYyTciCs-Udk25P-Yr-40" value="a=d" style="rounded=0;whiteSpace=wrap;html=1;" vertex="1" parent="1">
          <mxGeometry x="270" y="755" width="50" height="40" as="geometry" />
        </mxCell>
        <mxCell id="XfRYyTciCs-Udk25P-Yr-97" style="edgeStyle=orthogonalEdgeStyle;rounded=0;orthogonalLoop=1;jettySize=auto;html=1;entryX=0;entryY=0.5;entryDx=0;entryDy=0;" edge="1" parent="1" source="XfRYyTciCs-Udk25P-Yr-41" target="XfRYyTciCs-Udk25P-Yr-6">
          <mxGeometry relative="1" as="geometry">
            <mxPoint x="50" y="90" as="targetPoint" />
            <Array as="points">
              <mxPoint x="80" y="850" />
              <mxPoint x="80" y="75" />
            </Array>
          </mxGeometry>
        </mxCell>
        <mxCell id="XfRYyTciCs-Udk25P-Yr-41" value="d=0" style="rounded=0;whiteSpace=wrap;html=1;" vertex="1" parent="1">
          <mxGeometry x="185" y="830" width="50" height="40" as="geometry" />
        </mxCell>
        <mxCell id="XfRYyTciCs-Udk25P-Yr-103" style="edgeStyle=orthogonalEdgeStyle;rounded=0;orthogonalLoop=1;jettySize=auto;html=1;" edge="1" parent="1" source="XfRYyTciCs-Udk25P-Yr-55" target="XfRYyTciCs-Udk25P-Yr-102">
          <mxGeometry relative="1" as="geometry">
            <Array as="points">
              <mxPoint x="213" y="1000" />
              <mxPoint x="414" y="1000" />
            </Array>
          </mxGeometry>
        </mxCell>
        <mxCell id="XfRYyTciCs-Udk25P-Yr-55" value="Вывод &quot;Ваш рекорд&quot;+ а" style="shape=parallelogram;perimeter=parallelogramPerimeter;whiteSpace=wrap;html=1;fixedSize=1;" vertex="1" parent="1">
          <mxGeometry x="152.5" y="920" width="120" height="50" as="geometry" />
        </mxCell>
        <mxCell id="XfRYyTciCs-Udk25P-Yr-57" style="edgeStyle=orthogonalEdgeStyle;rounded=0;orthogonalLoop=1;jettySize=auto;html=1;" edge="1" parent="1" target="XfRYyTciCs-Udk25P-Yr-59">
          <mxGeometry relative="1" as="geometry">
            <mxPoint x="600" y="109" as="sourcePoint" />
          </mxGeometry>
        </mxCell>
        <mxCell id="XfRYyTciCs-Udk25P-Yr-58" style="edgeStyle=orthogonalEdgeStyle;rounded=0;orthogonalLoop=1;jettySize=auto;html=1;" edge="1" parent="1" source="XfRYyTciCs-Udk25P-Yr-59" target="XfRYyTciCs-Udk25P-Yr-61">
          <mxGeometry relative="1" as="geometry" />
        </mxCell>
        <mxCell id="XfRYyTciCs-Udk25P-Yr-59" value="Range = Случайное число в диапазоне (33,122)" style="rounded=0;whiteSpace=wrap;html=1;" vertex="1" parent="1">
          <mxGeometry x="540" y="119" width="120" height="50" as="geometry" />
        </mxCell>
        <mxCell id="XfRYyTciCs-Udk25P-Yr-60" style="edgeStyle=orthogonalEdgeStyle;rounded=0;orthogonalLoop=1;jettySize=auto;html=1;" edge="1" parent="1" source="XfRYyTciCs-Udk25P-Yr-61" target="XfRYyTciCs-Udk25P-Yr-63">
          <mxGeometry relative="1" as="geometry" />
        </mxCell>
        <mxCell id="XfRYyTciCs-Udk25P-Yr-61" value="&amp;nbsp;neededKey=Range" style="rounded=0;whiteSpace=wrap;html=1;" vertex="1" parent="1">
          <mxGeometry x="540" y="179" width="120" height="30" as="geometry" />
        </mxCell>
        <mxCell id="XfRYyTciCs-Udk25P-Yr-62" style="edgeStyle=orthogonalEdgeStyle;rounded=0;orthogonalLoop=1;jettySize=auto;html=1;entryX=0.5;entryY=0;entryDx=0;entryDy=0;" edge="1" parent="1" source="XfRYyTciCs-Udk25P-Yr-63" target="XfRYyTciCs-Udk25P-Yr-65">
          <mxGeometry relative="1" as="geometry" />
        </mxCell>
        <mxCell id="XfRYyTciCs-Udk25P-Yr-63" value="key=Кнопка ESC" style="rounded=0;whiteSpace=wrap;html=1;" vertex="1" parent="1">
          <mxGeometry x="540" y="219" width="120" height="30" as="geometry" />
        </mxCell>
        <mxCell id="XfRYyTciCs-Udk25P-Yr-64" style="edgeStyle=orthogonalEdgeStyle;rounded=0;orthogonalLoop=1;jettySize=auto;html=1;" edge="1" parent="1" source="XfRYyTciCs-Udk25P-Yr-65" target="XfRYyTciCs-Udk25P-Yr-67">
          <mxGeometry relative="1" as="geometry" />
        </mxCell>
        <mxCell id="XfRYyTciCs-Udk25P-Yr-65" value="Вывод neededKey" style="shape=parallelogram;perimeter=parallelogramPerimeter;whiteSpace=wrap;html=1;fixedSize=1;" vertex="1" parent="1">
          <mxGeometry x="535" y="259" width="130" height="30" as="geometry" />
        </mxCell>
        <mxCell id="XfRYyTciCs-Udk25P-Yr-66" style="edgeStyle=orthogonalEdgeStyle;rounded=0;orthogonalLoop=1;jettySize=auto;html=1;entryX=0.5;entryY=0;entryDx=0;entryDy=0;" edge="1" parent="1" source="XfRYyTciCs-Udk25P-Yr-67" target="XfRYyTciCs-Udk25P-Yr-69">
          <mxGeometry relative="1" as="geometry" />
        </mxCell>
        <mxCell id="XfRYyTciCs-Udk25P-Yr-67" value="Ввод pressedKey" style="shape=parallelogram;perimeter=parallelogramPerimeter;whiteSpace=wrap;html=1;fixedSize=1;" vertex="1" parent="1">
          <mxGeometry x="537.5" y="299" width="125" height="30" as="geometry" />
        </mxCell>
        <mxCell id="XfRYyTciCs-Udk25P-Yr-68" style="edgeStyle=orthogonalEdgeStyle;rounded=0;orthogonalLoop=1;jettySize=auto;html=1;entryX=0.5;entryY=0;entryDx=0;entryDy=0;" edge="1" parent="1" source="XfRYyTciCs-Udk25P-Yr-69" target="XfRYyTciCs-Udk25P-Yr-72">
          <mxGeometry relative="1" as="geometry" />
        </mxCell>
        <mxCell id="XfRYyTciCs-Udk25P-Yr-69" value="key=pressedKey" style="rounded=0;whiteSpace=wrap;html=1;" vertex="1" parent="1">
          <mxGeometry x="540" y="339" width="120" height="30" as="geometry" />
        </mxCell>
        <mxCell id="XfRYyTciCs-Udk25P-Yr-70" style="edgeStyle=orthogonalEdgeStyle;rounded=0;orthogonalLoop=1;jettySize=auto;html=1;entryX=0.5;entryY=0;entryDx=0;entryDy=0;" edge="1" parent="1" source="XfRYyTciCs-Udk25P-Yr-72" target="XfRYyTciCs-Udk25P-Yr-75">
          <mxGeometry relative="1" as="geometry" />
        </mxCell>
        <mxCell id="XfRYyTciCs-Udk25P-Yr-98" style="edgeStyle=orthogonalEdgeStyle;rounded=0;orthogonalLoop=1;jettySize=auto;html=1;entryX=0.5;entryY=0;entryDx=0;entryDy=0;" edge="1" parent="1" source="XfRYyTciCs-Udk25P-Yr-72" target="XfRYyTciCs-Udk25P-Yr-91">
          <mxGeometry relative="1" as="geometry">
            <Array as="points">
              <mxPoint x="450" y="409" />
              <mxPoint x="450" y="900" />
              <mxPoint x="603" y="900" />
            </Array>
          </mxGeometry>
        </mxCell>
        <mxCell id="XfRYyTciCs-Udk25P-Yr-72" value="key = Кнопка ESC" style="rhombus;whiteSpace=wrap;html=1;" vertex="1" parent="1">
          <mxGeometry x="535" y="379" width="130" height="60" as="geometry" />
        </mxCell>
        <mxCell id="XfRYyTciCs-Udk25P-Yr-73" style="edgeStyle=orthogonalEdgeStyle;rounded=0;orthogonalLoop=1;jettySize=auto;html=1;" edge="1" parent="1" source="XfRYyTciCs-Udk25P-Yr-75" target="XfRYyTciCs-Udk25P-Yr-77">
          <mxGeometry relative="1" as="geometry" />
        </mxCell>
        <mxCell id="XfRYyTciCs-Udk25P-Yr-99" style="edgeStyle=orthogonalEdgeStyle;rounded=0;orthogonalLoop=1;jettySize=auto;html=1;entryX=0.5;entryY=0;entryDx=0;entryDy=0;" edge="1" parent="1" source="XfRYyTciCs-Udk25P-Yr-75" target="XfRYyTciCs-Udk25P-Yr-81">
          <mxGeometry relative="1" as="geometry">
            <Array as="points">
              <mxPoint x="490" y="489" />
              <mxPoint x="490" y="660" />
              <mxPoint x="600" y="660" />
            </Array>
          </mxGeometry>
        </mxCell>
        <mxCell id="XfRYyTciCs-Udk25P-Yr-75" value="neededKey!=pressedKey" style="rhombus;whiteSpace=wrap;html=1;" vertex="1" parent="1">
          <mxGeometry x="522.5" y="449" width="155" height="80" as="geometry" />
        </mxCell>
        <mxCell id="XfRYyTciCs-Udk25P-Yr-76" style="edgeStyle=orthogonalEdgeStyle;rounded=0;orthogonalLoop=1;jettySize=auto;html=1;" edge="1" parent="1" source="XfRYyTciCs-Udk25P-Yr-77" target="XfRYyTciCs-Udk25P-Yr-79">
          <mxGeometry relative="1" as="geometry" />
        </mxCell>
        <mxCell id="XfRYyTciCs-Udk25P-Yr-77" value="d=d+1" style="rounded=0;whiteSpace=wrap;html=1;" vertex="1" parent="1">
          <mxGeometry x="570" y="539" width="60" height="40" as="geometry" />
        </mxCell>
        <mxCell id="XfRYyTciCs-Udk25P-Yr-100" style="edgeStyle=orthogonalEdgeStyle;rounded=0;orthogonalLoop=1;jettySize=auto;html=1;entryX=1;entryY=1;entryDx=0;entryDy=0;" edge="1" parent="1" source="XfRYyTciCs-Udk25P-Yr-79" target="XfRYyTciCs-Udk25P-Yr-8">
          <mxGeometry relative="1" as="geometry">
            <Array as="points">
              <mxPoint x="710" y="617" />
              <mxPoint x="710" y="88" />
            </Array>
          </mxGeometry>
        </mxCell>
        <mxCell id="XfRYyTciCs-Udk25P-Yr-79" value="Вывод &quot;Правильно + d&quot;" style="shape=parallelogram;perimeter=parallelogramPerimeter;whiteSpace=wrap;html=1;fixedSize=1;" vertex="1" parent="1">
          <mxGeometry x="517.5" y="594" width="165" height="45" as="geometry" />
        </mxCell>
        <mxCell id="XfRYyTciCs-Udk25P-Yr-80" style="edgeStyle=orthogonalEdgeStyle;rounded=0;orthogonalLoop=1;jettySize=auto;html=1;entryX=0.5;entryY=0;entryDx=0;entryDy=0;" edge="1" parent="1" source="XfRYyTciCs-Udk25P-Yr-81" target="XfRYyTciCs-Udk25P-Yr-83">
          <mxGeometry relative="1" as="geometry" />
        </mxCell>
        <mxCell id="XfRYyTciCs-Udk25P-Yr-81" value="Вывод &quot;Ошибка&quot;" style="shape=parallelogram;perimeter=parallelogramPerimeter;whiteSpace=wrap;html=1;fixedSize=1;" vertex="1" parent="1">
          <mxGeometry x="540" y="679" width="120" height="30" as="geometry" />
        </mxCell>
        <mxCell id="XfRYyTciCs-Udk25P-Yr-82" style="edgeStyle=orthogonalEdgeStyle;rounded=0;orthogonalLoop=1;jettySize=auto;html=1;" edge="1" parent="1" source="XfRYyTciCs-Udk25P-Yr-83" target="XfRYyTciCs-Udk25P-Yr-86">
          <mxGeometry relative="1" as="geometry" />
        </mxCell>
        <mxCell id="XfRYyTciCs-Udk25P-Yr-83" value="Проигрывание звука" style="rounded=0;whiteSpace=wrap;html=1;" vertex="1" parent="1">
          <mxGeometry x="540" y="719" width="120" height="30" as="geometry" />
        </mxCell>
        <mxCell id="XfRYyTciCs-Udk25P-Yr-84" style="edgeStyle=orthogonalEdgeStyle;rounded=0;orthogonalLoop=1;jettySize=auto;html=1;entryX=0.5;entryY=0;entryDx=0;entryDy=0;" edge="1" parent="1" source="XfRYyTciCs-Udk25P-Yr-86" target="XfRYyTciCs-Udk25P-Yr-90">
          <mxGeometry relative="1" as="geometry" />
        </mxCell>
        <mxCell id="XfRYyTciCs-Udk25P-Yr-85" style="edgeStyle=orthogonalEdgeStyle;rounded=0;orthogonalLoop=1;jettySize=auto;html=1;entryX=1;entryY=0.5;entryDx=0;entryDy=0;" edge="1" parent="1" source="XfRYyTciCs-Udk25P-Yr-86" target="XfRYyTciCs-Udk25P-Yr-88">
          <mxGeometry relative="1" as="geometry" />
        </mxCell>
        <mxCell id="XfRYyTciCs-Udk25P-Yr-86" value="d&amp;gt;a" style="rhombus;whiteSpace=wrap;html=1;" vertex="1" parent="1">
          <mxGeometry x="570" y="759" width="60" height="50" as="geometry" />
        </mxCell>
        <mxCell id="XfRYyTciCs-Udk25P-Yr-87" style="edgeStyle=orthogonalEdgeStyle;rounded=0;orthogonalLoop=1;jettySize=auto;html=1;entryX=0;entryY=0.5;entryDx=0;entryDy=0;" edge="1" parent="1" source="XfRYyTciCs-Udk25P-Yr-88" target="XfRYyTciCs-Udk25P-Yr-90">
          <mxGeometry relative="1" as="geometry">
            <Array as="points">
              <mxPoint x="513" y="859" />
            </Array>
          </mxGeometry>
        </mxCell>
        <mxCell id="XfRYyTciCs-Udk25P-Yr-88" value="a=d" style="rounded=0;whiteSpace=wrap;html=1;" vertex="1" parent="1">
          <mxGeometry x="487.5" y="764" width="50" height="40" as="geometry" />
        </mxCell>
        <mxCell id="XfRYyTciCs-Udk25P-Yr-101" style="edgeStyle=orthogonalEdgeStyle;rounded=0;orthogonalLoop=1;jettySize=auto;html=1;entryX=1;entryY=0.5;entryDx=0;entryDy=0;" edge="1" parent="1" source="XfRYyTciCs-Udk25P-Yr-90" target="XfRYyTciCs-Udk25P-Yr-8">
          <mxGeometry relative="1" as="geometry">
            <Array as="points">
              <mxPoint x="740" y="859" />
              <mxPoint x="740" y="75" />
            </Array>
          </mxGeometry>
        </mxCell>
        <mxCell id="XfRYyTciCs-Udk25P-Yr-90" value="d=0" style="rounded=0;whiteSpace=wrap;html=1;" vertex="1" parent="1">
          <mxGeometry x="575" y="839" width="50" height="40" as="geometry" />
        </mxCell>
        <mxCell id="XfRYyTciCs-Udk25P-Yr-104" style="edgeStyle=orthogonalEdgeStyle;rounded=0;orthogonalLoop=1;jettySize=auto;html=1;entryX=0.5;entryY=0;entryDx=0;entryDy=0;" edge="1" parent="1" source="XfRYyTciCs-Udk25P-Yr-91" target="XfRYyTciCs-Udk25P-Yr-102">
          <mxGeometry relative="1" as="geometry">
            <Array as="points">
              <mxPoint x="603" y="1000" />
              <mxPoint x="414" y="1000" />
            </Array>
          </mxGeometry>
        </mxCell>
        <mxCell id="XfRYyTciCs-Udk25P-Yr-91" value="Вывод &quot;Ваш рекорд&quot;+ а" style="shape=parallelogram;perimeter=parallelogramPerimeter;whiteSpace=wrap;html=1;fixedSize=1;" vertex="1" parent="1">
          <mxGeometry x="542.5" y="929" width="120" height="50" as="geometry" />
        </mxCell>
        <mxCell id="XfRYyTciCs-Udk25P-Yr-102" value="Конец" style="rounded=1;whiteSpace=wrap;html=1;" vertex="1" parent="1">
          <mxGeometry x="354" y="1030" width="120" height="60" as="geometry" />
        </mxCell>
      </root>
    </mxGraphModel>
  </diagram>
</mxfile>
